<svg width="230" height="310" viewBox="0 0 230 310" fill="none" xmlns="http://www.w3.org/2000/svg">
  <defs>
    <linearGradient id="potion-light-grad" x1="115" y1="265" x2="115" y2="85" gradientUnits="userSpaceOnUse">
      <stop offset="0" stop-color="#00BCD4"/>
      <stop offset="1" stop-color="#E0F7FA"/>
    </linearGradient>
    <path id="bottle-shape-v5" d="M115 265C148 265 175 238 175 200C175 157 143 140 140 85L145 75H85L90 85C87 140 55 157 55 200C55 238 82 265 115 265Z" />
    <clipPath id="liquid-mask-shape-v5"><use href="#bottle-shape-v5" transform="scale(0.96) translate(4.5, 5)"/></clipPath>
  </defs>

  <use href="#bottle-shape-v5" stroke="#2A0A0A" stroke-width="14" stroke-linejoin="round"/>
  <use href="#bottle-shape-v5" stroke="white" stroke-width="10" stroke-linejoin="round" fill="#2A0A0A"/>

  <g clip-path="url(#liquid-mask-shape-v5)">
      <rect x="50" y="70" width="130" height="200" fill="#006064"/>
      <rect id="animatable-potion-fill-v5" x="50" y="80" width="130" height="190" fill="url(#potion-light-grad)"/>

      <g fill="#FFFFFF" opacity="0.8">
          <circle cx="115" cy="180" r="10" opacity="0.6"/>
          <circle cx="115" cy="180" r="5" /> <path d="M90 210 L95 210 L95 205 L100 205 L100 210 L105 210 L105 215 L100 215 L100 225 L95 225 L95 215 L90 215 Z" /> <circle cx="145" cy="150" r="4" />
          <circle cx="85" cy="140" r="3" />
      </g>
  </g>

  <g id="diamond-stopper" transform="translate(115, 50)">
      <path d="M0 -30 L30 -5 L20 30 H-20 L-30 -5 Z" stroke="white" stroke-width="6" stroke-linejoin="round" fill="#2A0A0A"/>
      <g transform="scale(0.9)">
        <path d="M0 -30 L30 -5 L20 30 H-20 L-30 -5 Z" fill="#00ACC1"/>
        <path d="M0 -30 L20 30 L-20 30 Z" fill="#B2EBF2"/>
        <path d="M0 -30 L30 -5 L20 30 Z" fill="#26C6DA"/>
        <path d="M0 -30 L-30 -5 L-20 30 Z" fill="#26C6DA"/>
        <path d="M-20 30 H20" stroke="#00838F" stroke-width="2"/>
      </g>
  </g>
</svg>