<?xml version="1.0" encoding="UTF-8"?>
<svg id="_Слой_2" data-name="Слой 2" xmlns="http://www.w3.org/2000/svg" viewBox="0 0 484.25 484.13">
  <defs>
      <clipPath id="flask-fill-clip">
          <rect id="flask-fill-rect" x="0" y="0" width="484.25" height="484.13" />
      </clipPath>
    <style>
      .cls-1 {
        fill: #6a0020;
      }

      .cls-1, .cls-2, .cls-3 {
        stroke: #000;
      }

      .cls-1, .cls-4, .cls-3 {
        stroke-width: 3px;
      }

      .cls-5, .cls-6 {
        stroke-width: 0px;
      }

      .cls-2 {
        fill: #fff;
        stroke-width: 2px;
      }

      .cls-2, .cls-4 {
        stroke-linecap: round;
        stroke-linejoin: round;
      }

      .cls-4 {
        stroke: #fff;
      }

      .cls-7 {
        opacity: .51;
        stroke: #1f0000;
        stroke-width: 5px;
      }

      .cls-6 {
        fill: #6a0014;
      }
    </style>
  </defs>
  <g id="_Слой_16">
    <g>
      <rect class="cls-7" x="100.94" y="100.57" width="282.91" height="282.91" transform="translate(242.13 -100.51) rotate(45)"/>
      <polygon class="cls-3" points="82.57 242.02 63.26 261.33 42.35 282.25 2.12 242.02 42.35 201.79 63.26 222.71 82.57 242.02"/>
      <polygon class="cls-3" points="482.13 242.02 441.9 282.25 401.67 242.02 421.14 222.55 441.9 201.79 482.13 242.02"/>
      <rect class="cls-3" x="213.95" y="13.9" width="56.89" height="56.89" transform="translate(41.05 183.8) rotate(-45)"/>
      <rect class="cls-3" x="213.95" y="413.34" width="56.89" height="56.89" transform="translate(-241.38 300.73) rotate(-44.99)"/>
      <path class="cls-6" d="m421.14,222.55l-19.47,19.47,19.47,19.47c25.33-11.19,46.72-16.71,59.36-19.47-12.64-2.77-34.03-8.28-59.36-19.47Zm-15.31,19.39l15.83-12.47c20.59,7.16,37.97,10.69,48.25,12.47-10.28,1.77-27.66,5.3-48.25,12.47l-15.83-12.47Z"/>
      <path class="cls-6" d="m63.1,261.34l19.47-19.47-19.47-19.47c-25.33,11.19-46.72,16.71-59.36,19.47,12.64,2.77,34.03,8.28,59.36,19.47Zm15.31-19.39l-15.83,12.47c-20.59-7.16-37.97-10.69-48.25-12.47,10.28-1.77,27.66-5.3,48.25-12.47l15.83,12.47Z"/>
      <path class="cls-6" d="m42.34,282.1c6.38-6.39,12.77-12.77,19.15-19.16-7.05-.27-15.95-1.27-25.88-4.04-13.72-3.83-24.28-9.62-31.45-14.33,12.73,12.51,25.45,25.02,38.18,37.53Zm-4.76-19.33c6.96,1.95,13.2,2.65,18.15,2.84-4.48,4.47-8.96,8.95-13.43,13.43-8.93-8.77-17.85-17.55-26.78-26.32,5.03,3.31,12.44,7.37,22.06,10.05Z"/>
      <path class="cls-6" d="m4.16,239.47c7.17-4.71,17.73-10.5,31.45-14.33,9.93-2.77,18.83-3.77,25.88-4.04-6.38-6.39-12.77-12.77-19.15-19.16-12.73,12.51-25.45,25.02-38.18,37.53Zm11.36-8.15c8.93-8.77,17.85-17.55,26.78-26.32,4.47,4.48,8.95,8.96,13.43,13.43-4.95.19-11.19.89-18.15,2.84-9.62,2.68-17.03,6.74-22.06,10.05Z"/>
      <path class="cls-6" d="m261.8,421.17l-19.47-19.47-19.47,19.47c11.19,25.33,16.71,46.72,19.47,59.36,2.77-12.64,8.28-34.03,19.47-59.36Zm-19.39-15.31l12.47,15.83c-7.16,20.59-10.69,37.97-12.47,48.25-1.77-10.28-5.3-27.66-12.47-48.25l12.47-15.83Z"/>
      <path class="cls-6" d="m223.01,63.14l19.47,19.47,19.47-19.47c-11.19-25.33-16.71-46.72-19.47-59.36-2.77,12.64-8.28,34.03-19.47,59.36Zm19.39,15.31l-12.47-15.83c7.16-20.59,10.69-37.97,12.47-48.25,1.77,10.28,5.3,27.66,12.47,48.25l-12.47,15.83Z"/>
      <path class="cls-6" d="m202.25,42.38c6.39,6.38,12.77,12.77,19.16,19.15.27-7.05,1.27-15.95,4.04-25.88,3.83-13.72,9.62-24.28,14.33-31.45-12.51,12.73-25.02,25.45-37.53,38.18Zm19.33-4.76c-1.95,6.96-2.65,13.2-2.84,18.15-4.47-4.48-8.95-8.96-13.43-13.43,8.77-8.93,17.55-17.85,26.32-26.78-3.31,5.03-7.37,12.44-10.05,22.06Z"/>
      <path class="cls-6" d="m244.88,4.2c4.71,7.17,10.5,17.73,14.33,31.45,2.77,9.93,3.77,18.83,4.04,25.88,6.39-6.38,12.77-12.77,19.16-19.15-12.51-12.73-25.02-25.45-37.53-38.18Zm8.15,11.36c8.77,8.93,17.55,17.85,26.32,26.78-4.48,4.47-8.96,8.95-13.43,13.43-.19-4.95-.89-11.19-2.84-18.15-2.68-9.62-6.74-17.03-10.05-22.06Z"/>
      <path class="cls-6" d="m282.56,441.93c-6.39-6.38-12.77-12.77-19.16-19.15-.27,7.05-1.27,15.95-4.04,25.88-3.83,13.72-9.62,24.28-14.33,31.45,12.51-12.73,25.02-25.45,37.53-38.18Zm-19.33,4.76c1.95-6.96,2.65-13.2,2.84-18.15,4.47,4.48,8.95,8.96,13.43,13.43-8.77,8.93-17.55,17.85-26.32,26.78,3.31-5.03,7.37-12.44,10.05-22.06Z"/>
      <path class="cls-6" d="m239.93,480.11c-4.71-7.17-10.5-17.73-14.33-31.45-2.77-9.93-3.77-18.83-4.04-25.88-6.39,6.38-12.77,12.77-19.16,19.15,12.51,12.73,25.02,25.45,37.53,38.18Zm-8.15-11.36c-8.77-8.93-17.55-17.85-26.32-26.78,4.48-4.47,8.96-8.95,13.43-13.43.19,4.95.89,11.19,2.84,18.15,2.68,9.62,6.74,17.03,10.05,22.06Z"/>
      <path class="cls-6" d="m441.9,201.79c-6.38,6.39-12.77,12.77-19.15,19.16,7.05.27,15.95,1.27,25.88,4.04,13.72,3.83,24.28,9.62,31.45,14.33-12.73-12.51-25.45-25.02-38.18-37.53Zm4.76,19.33c-6.96-1.95-13.2-2.65-18.15-2.84,4.48-4.47,8.96-8.95,13.43-13.43,8.93,8.77,17.85,17.55,26.78,26.32-5.03-3.31-12.44-7.37-22.06-10.05Z"/>
      <path class="cls-6" d="m480.08,244.42c-7.17,4.71-17.73,10.5-31.45,14.33-9.93,2.77-18.83,3.77-25.88,4.04,6.38,6.39,12.77,12.77,19.15,19.16,12.73-12.51,25.45-25.02,38.18-37.53Zm-11.36,8.15c-8.93,8.77-17.85,17.55-26.78,26.32-4.47-4.48-8.95-8.96-13.43-13.43,4.95-.19,11.19-.89,18.15-2.84,9.62-2.68,17.03-6.74,22.06-10.05Z"/>
      <path class="cls-2" d="m341.9,290c0,50.78-44.12,91.98-98.51,91.98s-98.58-41.14-98.58-91.98c0-26.26,11.82-49.97,30.74-66.78,2.18-1.56,4.67-3.55,7.34-5.91,3.61-3.17,7.53-7.09,11.45-11.76,8.4-10.14,16.18-19.48,16.8-31.86.37-7.41-1.99-11.02-11.2-31.68-5.79-12.94-10.14-23.46-12.82-29.93h11.7c5.85,17.74,11.08,30.68,15.18,39.95,2.86,6.41,6.97,15.31,6.29,27.13-.19,2.8-.56,8.65-3.48,15.25-1.56,3.49-3.73,6.91-17.05,21.1-3.61,3.8-6.6,6.97-8.71,9.15-3.98,2.99-34.97,27.26-34.29,63.66.75,38.09,35.85,74.55,84.95,79.28h2.55c49.1-4.73,84.2-41.2,84.95-79.28.68-36.41-30.37-60.68-34.29-63.66-2.12-2.18-5.17-5.29-8.71-9.15-13.32-14.19-15.5-17.61-17.05-21.1-2.99-6.6-3.36-12.45-3.48-15.25-.68-11.82,3.48-20.72,6.29-27.13,4.05-9.27,9.33-22.22,15.18-39.95h12.01c-2.68,6.47-7.03,16.99-12.76,29.93-9.21,20.66-11.58,24.33-11.2,31.68.62,12.38,8.4,21.72,16.8,31.86,3.42,4.17,6.91,7.65,10.14,10.58,24.08,16.8,39.77,43.62,39.77,73.87Z"/>
        <path class="cls-1" clip-path="url(#flask-fill-clip)" d="m256.19,168.19c1.27,7.52,3.95,18.25,10.19,29.79,2.37,4.39,5.35,8.55,11.32,16.86,11.12,15.5,17.68,21.84,21.27,25.07,2.92,2.64,5.45,4.65,7.13,5.93.13,1.98,0,3.77-.31,5.39-3.17,16.76-26.12,24.11-29.46,25.13,3.08.99,9.17,2.46,16.39.8,13.67-3.14,20.08-14.88,21.1-16.83,1.38,2.33,3.16,5.74,4.61,10.08,10.15,30.24-10.95,59.74-12.95,62.46-17.3,23.44-42.41,29.04-47.13,30-1.59.33-37.37,7.05-65.69-16.37-2.21-1.83-13.94-11.75-21.87-28.94-2.26-4.9-5.58-12.25-6.58-22.34-1.59-16.03,3.67-28.77,6.85-35.06,1.27,1.86,2.77,3.75,4.56,5.6,9.59,9.92,21.74,12.82,28.38,13.79-3.21-2.58-6.71-5.81-10.16-9.82-7.56-8.78-11.77-17.69-14.16-24.22,2.08-3.37,5.4-8.3,10.2-13.64,6.89-7.67,9.7-8.27,15.51-14.14,10.11-10.22,14.56-21.52,17.38-28.65,2.09-5.3,4.48-12.71,5.86-21.87,2.54.56,5.31,1.03,8.3,1.35,7.41.79,13.96.39,19.27-.38Z"/><g>
      <path class="cls-4" d="m257.51,157.76c-3.42,1.06-8.34,2.12-14.38,2.12-5.41,0-9.96-.93-13.19-1.87-7.97-18.61-15.87-37.21-23.83-55.82h71.13c-6.6,18.55-13.13,37.03-19.73,55.57Z"/>
        <path class="cls-5" d="m306.42,299.47c-.87,3.01-2.39,7.42-5.08,12.34-12.09,22.06-34.14,29.15-36.51,29.87-14.79,4.5-27.55,2.2-33.71.62,7.88.21,20.71-.53,34.85-6.53,24.19-10.26,36.36-29.19,40.45-36.3Z"/>
        <path class="cls-5" d="m208.43,222.86c2.18,3.29,5.07,6.89,8.92,10.3,13.89,12.3,30.63,13.67,37.41,13.83-2.67.88-7.06,2.01-12.52,1.94-5.02-.06-18.94-1.25-27.73-12.45-1.75-2.24-4.74-6.71-6.08-13.62Z"/>
        <path class="cls-5" d="m258.34,214.85c-.12,1.22-.79,2.08-1.16,2.55-.33.43-1.66,2.13-3.67,2.28-2.5.18-5.18-2.09-5.28-4.7-.1-2.74,2.69-4.42,3.39-4.84.69-.41,1.35-.81,2.25-.8,2.38.04,4.73,2.92,4.48,5.5Z"/>
        <path class="cls-5" d="m241.37,194.72c-.05,1.47-1.17,2.54-1.55,2.9-.53.5-1.44,1.41-2.71,1.35-1.04-.05-1.73-.71-2.51-1.46-.87-.83-1.72-1.65-1.74-2.8-.03-1.48,1.34-2.55,2.16-3.18.7-.55,1.28-1,2.1-1.07,1.99-.17,4.33,2.01,4.25,4.25Z"/>
        <path class="cls-5" d="m254.56,182.13c-.03.62-.08,1.52-.49,2.39-.59,1.27-2.06,2.74-3.92,2.8-2.68.09-4.93-2.79-4.72-5.19.14-1.56,1.28-2.66,1.69-3.05.44-.43,1.39-1.34,2.88-1.51,1.67-.19,3.61.62,4.3,2.08.36.75.31,1.5.26,2.48Z"/>
      </g>
    </g>
  </g>
</svg>
