<?xml version="1.0" encoding="UTF-8"?>
<svg id="_Слой_2" data-name="Слой 2" xmlns="http://www.w3.org/2000/svg" viewBox="0 0 484.25 484.13">
  <defs>
      <clipPath id="flask-fill-clip">
          <rect id="flask-fill-rect" x="0" y="0" width="484.25" height="484.13" />
      </clipPath>
    <style>
      .cls-1, .cls-2, .cls-3 {
        stroke-width: 0px;
      }

      .cls-1, .cls-4 {
        fill: #7b4997;
      }

      .cls-5 {
        fill: #fff;
        stroke-width: 2px;
      }

      .cls-5, .cls-6 {
        stroke-linecap: round;
        stroke-linejoin: round;
      }

      .cls-5, .cls-7, .cls-4 {
        stroke: #000;
      }

      .cls-6 {
        stroke: #fff;
      }

      .cls-6, .cls-7, .cls-4 {
        stroke-width: 3px;
      }

      .cls-3 {
        fill: #2f4ba4;
      }

      .cls-8 {
        opacity: .51;
        stroke: #452159;
        stroke-width: 5px;
      }
    </style>
  </defs>
  <g id="_Слой_15">
    <rect class="cls-8" x="100.94" y="100.57" width="282.91" height="282.91" transform="translate(242.13 -100.51) rotate(45)"/>
    <polygon class="cls-7" points="82.57 242.02 50.19 274.4 42.35 282.25 2.12 242.02 42.35 201.79 49.47 208.92 82.57 242.02"/>
    <polygon class="cls-7" points="482.13 242.02 481.92 242.23 468.47 255.68 465.25 258.9 441.9 282.25 401.67 242.02 419.03 224.66 441.9 201.79 482.13 242.02"/>
    <polygon class="cls-7" points="282.62 42.34 275.68 49.29 266.41 58.55 242.39 82.57 218.53 58.71 209.11 49.29 202.16 42.34 242.39 2.12 282.62 42.34"/>
    <polygon class="cls-7" points="282.62 441.79 242.39 482.01 202.16 441.79 209.87 434.08 218.84 425.11 242.39 401.56 266.1 425.27 274.91 434.08 282.62 441.79"/>
    <path class="cls-5" d="m341.9,290c0,50.78-44.12,91.98-98.51,91.98s-98.58-41.14-98.58-91.98c0-26.26,11.82-49.97,30.74-66.78,2.18-1.56,4.67-3.55,7.34-5.91,3.61-3.17,7.53-7.09,11.45-11.76,8.4-10.14,16.18-19.48,16.8-31.86.37-7.41-1.99-11.02-11.2-31.68-5.79-12.94-10.14-23.46-12.82-29.93h11.7c5.85,17.74,11.08,30.68,15.18,39.95,2.86,6.41,6.97,15.31,6.29,27.13-.19,2.8-.56,8.65-3.48,15.25-1.56,3.49-3.73,6.91-17.05,21.1-3.61,3.8-6.6,6.97-8.71,9.15-3.98,2.99-34.97,27.26-34.29,63.66.75,38.09,35.85,74.55,84.95,79.28h2.55c49.1-4.73,84.2-41.2,84.95-79.28.68-36.41-30.37-60.68-34.29-63.66-2.12-2.18-5.17-5.29-8.71-9.15-13.32-14.19-15.5-17.61-17.05-21.1-2.99-6.6-3.36-12.45-3.48-15.25-.68-11.82,3.48-20.72,6.29-27.13,4.05-9.27,9.33-22.22,15.18-39.95h12.01c-2.68,6.47-7.03,16.99-12.76,29.93-9.21,20.66-11.58,24.33-11.2,31.68.62,12.38,8.4,21.72,16.8,31.86,3.42,4.17,6.91,7.65,10.14,10.58,24.08,16.8,39.77,43.62,39.77,73.87Z"/>
    <path class="cls-6" d="m257.51,157.76c-3.42,1.06-8.34,2.12-14.38,2.12-5.41,0-9.96-.93-13.19-1.87-7.97-18.61-15.87-37.21-23.83-55.82h71.13c-6.6,18.55-13.13,37.03-19.73,55.57Z"/>
    <path class="cls-4" clip-path="url(#flask-fill-clip)" d="m256.19,168.19c1.27,7.52,3.95,18.25,10.19,29.79,2.37,4.39,5.35,8.55,11.32,16.86,11.12,15.5,17.68,21.84,21.27,25.07,2.92,2.64,5.45,4.65,7.13,5.93.13,1.98,0,3.77-.31,5.39-3.17,16.76-26.12,24.11-29.46,25.13,3.08.99,9.17,2.46,16.39.8,13.67-3.14,20.08-14.88,21.1-16.83,1.38,2.33,3.16,5.74,4.61,10.08,10.15,30.24-10.95,59.74-12.95,62.46-17.3,23.44-42.41,29.04-47.13,30-1.59.33-37.37,7.05-65.69-16.37-2.21-1.83-13.94-11.75-21.87-28.94-2.26-4.9-5.58-12.25-6.58-22.34-1.59-16.03,3.67-28.77,6.85-35.06,1.27,1.86,2.77,3.75,4.56,5.6,9.59,9.92,21.74,12.82,28.38,13.79-3.21-2.58-6.71-5.81-10.16-9.82-7.56-8.78-11.77-17.69-14.16-24.22,2.08-3.37,5.4-8.3,10.2-13.64,6.89-7.67,9.7-8.27,15.51-14.14,10.11-10.22,14.56-21.52,17.38-28.65,2.09-5.3,4.48-12.71,5.86-21.87,2.54.56,5.31,1.03,8.3,1.35,7.41.79,13.96.39,19.27-.38Z"/>
    <g>
      <path class="cls-2" d="m306.41,299.47c-.87,3.01-2.39,7.42-5.08,12.34-12.09,22.06-34.14,29.15-36.51,29.87-14.79,4.5-27.55,2.2-33.71.62,7.88.21,20.71-.53,34.85-6.53,24.19-10.26,36.36-29.19,40.45-36.3Z"/>
      <path class="cls-2" d="m208.43,222.86c2.18,3.29,5.07,6.89,8.92,10.3,13.89,12.3,30.63,13.67,37.41,13.83-2.67.88-7.06,2.01-12.52,1.94-5.02-.06-18.94-1.25-27.73-12.45-1.75-2.24-4.74-6.71-6.08-13.62Z"/>
      <path class="cls-2" d="m258.34,214.84c-.12,1.22-.79,2.08-1.16,2.55-.33.43-1.66,2.13-3.67,2.28-2.5.18-5.18-2.09-5.28-4.7-.1-2.74,2.69-4.42,3.39-4.84.69-.41,1.35-.81,2.25-.8,2.38.04,4.73,2.92,4.48,5.5Z"/>
      <path class="cls-2" d="m241.37,194.72c-.05,1.47-1.17,2.54-1.55,2.9-.53.5-1.44,1.41-2.71,1.35-1.04-.05-1.73-.71-2.51-1.46-.87-.83-1.72-1.65-1.74-2.8-.03-1.48,1.34-2.55,2.16-3.18.7-.55,1.28-1,2.1-1.07,1.99-.17,4.33,2.01,4.25,4.25Z"/>
      <path class="cls-2" d="m254.55,182.13c-.03.62-.08,1.52-.49,2.39-.59,1.27-2.06,2.74-3.92,2.8-2.68.09-4.93-2.79-4.72-5.19.14-1.56,1.28-2.66,1.69-3.05.44-.43,1.39-1.34,2.88-1.51,1.67-.19,3.61.62,4.3,2.08.36.75.31,1.5.26,2.48Z"/>
    </g>
    <path class="cls-3" d="m461.97,248.34s-.07.04-.1.06c.04.02.07.05.11.08,0-.05-.01-.09-.01-.14Z"/>
    <path class="cls-3" d="m461.98,248.48s-.07-.06-.11-.08c.03-.02.06-.03.1-.06,0,.05.01.09.01.14Z"/>
    <path class="cls-1" d="m242.39,16l-33.28,33.29,9.42,9.42,24.02-24.02,23.86,23.86,9.27-9.26-33.29-33.29ZM58.9,218.35l-9.43-9.43-32.38,32.38,33.1,33.1,8.98-8.98-23.67-23.67,23.4-23.4Zm376.14-9.7l-9.26,9.26,23.84,23.84-24.11,24.11,8.81,8.81,33.37-33.37-32.65-32.65Zm-168.94,216.62l-23.55,23.55-23.71-23.71-8.97,8.97,32.52,32.52,32.52-32.52-8.81-8.81Z"/>
  </g>
</svg>
