<?xml version="1.0" encoding="UTF-8"?>
<svg id="_Слой_2" data-name="Слой 2" xmlns="http://www.w3.org/2000/svg" viewBox="0 0 484.25 484.13">
  <defs>
      <clipPath id="flask-fill-clip">
          <rect id="flask-fill-rect" x="0" y="0" width="484.25" height="484.13" />
      </clipPath>
    <style>
      .cls-1, .cls-2, .cls-3, .cls-4 {
        stroke-width: 0px;
      }

      .cls-5 {
        fill: #fff;
        stroke-width: 2px;
      }

      .cls-5, .cls-6 {
        stroke-linecap: round;
        stroke-linejoin: round;
      }

      .cls-5, .cls-7, .cls-8 {
        stroke: #000;
      }

      .cls-2 {
        fill: #4d9d57;
      }

      .cls-9 {
        opacity: .51;
        stroke: #1f4337;
        stroke-width: 5px;
      }

      .cls-6 {
        stroke: #fff;
      }

      .cls-6, .cls-7, .cls-8 {
        stroke-width: 3px;
      }

      .cls-3 {
        fill: #4d9dbb;
      }

      .cls-4 {
        fill: #2f4ba4;
      }

      .cls-8 {
        fill: #2f7d33;
      }
    </style>
  </defs>
  <g id="_Слой_14">
    <g>
      <rect class="cls-9" x="100.94" y="100.57" width="282.91" height="282.91" transform="translate(242.13 -100.51) rotate(45)"/>
      <polygon class="cls-7" points="82.57 242.02 63.26 261.33 42.35 282.25 2.12 242.02 42.35 201.79 63.26 222.71 82.57 242.02"/>
      <polygon class="cls-7" points="482.13 242.02 481.92 242.23 468.47 255.68 465.25 258.9 441.9 282.25 423.94 264.29 420.12 260.47 419.3 259.65 401.67 242.02 419.03 224.66 421.14 222.55 422.79 220.9 423.59 220.1 441.9 201.79 482.13 242.02"/>
      <rect class="cls-7" x="213.95" y="13.9" width="56.89" height="56.89" transform="translate(41.05 183.8) rotate(-45)"/>
      <rect class="cls-7" x="213.95" y="413.34" width="56.89" height="56.89" transform="translate(-241.38 300.73) rotate(-44.99)"/>
      <path class="cls-5" d="m341.9,290c0,50.78-44.12,91.98-98.51,91.98s-98.58-41.14-98.58-91.98c0-26.26,11.82-49.97,30.74-66.78,2.18-1.56,4.67-3.55,7.34-5.91,3.61-3.17,7.53-7.09,11.45-11.76,8.4-10.14,16.18-19.48,16.8-31.86.37-7.41-1.99-11.02-11.2-31.68-5.79-12.94-10.14-23.46-12.82-29.93h11.7c5.85,17.74,11.08,30.68,15.18,39.95,2.86,6.41,6.97,15.31,6.29,27.13-.19,2.8-.56,8.65-3.48,15.25-1.56,3.49-3.73,6.91-17.05,21.1-3.61,3.8-6.6,6.97-8.71,9.15-3.98,2.99-34.97,27.26-34.29,63.66.75,38.09,35.85,74.55,84.95,79.28h2.55c49.1-4.73,84.2-41.2,84.95-79.28.68-36.41-30.37-60.68-34.29-63.66-2.12-2.18-5.17-5.29-8.71-9.15-13.32-14.19-15.5-17.61-17.05-21.1-2.99-6.6-3.36-12.45-3.48-15.25-.68-11.82,3.48-20.72,6.29-27.13,4.05-9.27,9.33-22.22,15.18-39.95h12.01c-2.68,6.47-7.03,16.99-12.76,29.93-9.21,20.66-11.58,24.33-11.2,31.68.62,12.38,8.4,21.72,16.8,31.86,3.42,4.17,6.91,7.65,10.14,10.58,24.08,16.8,39.77,43.62,39.77,73.87Z"/>
      <path class="cls-6" d="m257.51,157.76c-3.42,1.06-8.34,2.12-14.38,2.12-5.41,0-9.96-.93-13.19-1.87-7.97-18.61-15.87-37.21-23.83-55.82h71.13c-6.6,18.55-13.13,37.03-19.73,55.57Z"/>
      <path class="cls-8" clip-path="url(#flask-fill-clip)" d="m256.19,168.19c1.27,7.52,3.95,18.25,10.19,29.79,2.37,4.39,5.35,8.55,11.32,16.86,11.12,15.5,17.68,21.84,21.27,25.07,2.92,2.64,5.45,4.65,7.13,5.93.13,1.98,0,3.77-.31,5.39-3.17,16.76-26.12,24.11-29.46,25.13,3.08.99,9.17,2.46,16.39.8,13.67-3.14,20.08-14.88,21.1-16.83,1.38,2.33,3.16,5.74,4.61,10.08,10.15,30.24-10.95,59.74-12.95,62.46-17.3,23.44-42.41,29.04-47.13,30-1.59.33-37.37,7.05-65.69-16.37-2.21-1.83-13.94-11.75-21.87-28.94-2.26-4.9-5.58-12.25-6.58-22.34-1.59-16.03,3.67-28.77,6.85-35.06,1.27,1.86,2.77,3.75,4.56,5.6,9.59,9.92,21.74,12.82,28.38,13.79-3.21-2.58-6.71-5.81-10.16-9.82-7.56-8.78-11.77-17.69-14.16-24.22,2.08-3.37,5.4-8.3,10.2-13.64,6.89-7.67,9.7-8.27,15.51-14.14,10.11-10.22,14.56-21.52,17.38-28.65,2.09-5.3,4.48-12.71,5.86-21.87,2.54.56,5.31,1.03,8.3,1.35,7.41.79,13.96.39,19.27-.38Z"/>
      <g>
        <path class="cls-1" d="m306.42,299.47c-.87,3.01-2.39,7.42-5.08,12.34-12.09,22.06-34.14,29.15-36.51,29.87-14.79,4.5-27.55,2.2-33.71.62,7.88.21,20.71-.53,34.85-6.53,24.19-10.26,36.36-29.19,40.45-36.3Z"/>
        <path class="cls-1" d="m208.43,222.86c2.18,3.29,5.07,6.89,8.92,10.3,13.89,12.3,30.63,13.67,37.41,13.83-2.67.88-7.06,2.01-12.52,1.94-5.02-.06-18.94-1.25-27.73-12.45-1.75-2.24-4.74-6.71-6.08-13.62Z"/>
        <path class="cls-1" d="m258.34,214.85c-.12,1.22-.79,2.08-1.16,2.55-.33.43-1.66,2.13-3.67,2.28-2.5.18-5.18-2.09-5.28-4.7-.1-2.74,2.69-4.42,3.39-4.84.69-.41,1.35-.81,2.25-.8,2.38.04,4.73,2.92,4.48,5.5Z"/>
        <path class="cls-1" d="m241.37,194.72c-.05,1.47-1.17,2.54-1.55,2.9-.53.5-1.44,1.41-2.71,1.35-1.04-.05-1.73-.71-2.51-1.46-.87-.83-1.72-1.65-1.74-2.8-.03-1.48,1.34-2.55,2.16-3.18.7-.55,1.28-1,2.1-1.07,1.99-.17,4.33,2.01,4.25,4.25Z"/>
        <path class="cls-1" d="m254.56,182.13c-.03.62-.08,1.52-.49,2.39-.59,1.27-2.06,2.74-3.92,2.8-2.68.09-4.93-2.79-4.72-5.19.14-1.56,1.28-2.66,1.69-3.05.44-.43,1.39-1.34,2.88-1.51,1.67-.19,3.61.62,4.3,2.08.36.75.31,1.5.26,2.48Z"/>
      </g>
      <path class="cls-4" d="m461.97,248.34s-.07.04-.1.06c.04.02.07.05.11.08,0-.05-.01-.09-.01-.14Z"/>
      <path class="cls-4" d="m461.98,248.48s-.07-.06-.11-.08c.03-.02.06-.03.1-.06,0,.05.01.09.01.14Z"/>
      <g>
        <path class="cls-2" d="m465.99,237.66c-6.93-3.1-9.07-6.58-9.76-7.98l-9.75,7.98-17.83,4.36,17.83,4.36,9.75,7.97c.69-1.39,2.83-4.87,9.76-7.97,6.92-3.1,14.7-4.05,17.83-4.36-3.13-.31-10.91-1.26-17.83-4.36Zm-2.98,6.3c-5.37,1.39-7.03,2.94-7.56,3.56-1.9-1.18-4.41-2.5-7.55-3.56-4.04-1.35-7.77-1.83-10.73-1.94,2.96-.11,6.69-.59,10.73-1.95,3.14-1.05,5.65-2.37,7.55-3.55.53.62,2.19,2.17,7.56,3.55,5.36,1.39,11.38,1.81,13.8,1.95-2.42.14-8.44.56-13.8,1.94Z"/>
        <path class="cls-2" d="m447.09,237.98c-1.66,1.88-3.29,2.69-4.61,3.06-2.09.57-4.42.3-6.86-.72-5.31-2.24-11.1-8.04-15.85-16.4l1.37-1.37,1.65-1.65.8-.8c1.56,2.22,3.55,4.65,6.06,7.05,5.96,5.73,12.24,8.84,16.68,10.55.26.1.51.19.76.28Z"/>
        <path class="cls-2" d="m447.47,246.36c-.22.08-.45.17-.69.26-4.44,1.7-10.76,4.81-16.76,10.58-2.52,2.42-4.51,4.86-6.08,7.09l-3.82-3.82c4.85-8.56,10.8-14.45,16.21-16.57,2.32-.91,4.54-1.14,6.53-.59,1.31.36,2.94,1.17,4.61,3.05Z"/>
      </g>
      <path class="cls-3" d="m437.17,242.02c-1.15.04-2.18.03-3.07,0,.89-.04,1.92-.05,3.07,0Z"/>
      <g>
        <path class="cls-2" d="m18.56,246.55c6.93,3.1,9.07,6.58,9.76,7.98l9.75-7.98,17.83-4.36-17.83-4.36-9.75-7.97c-.69,1.39-2.83,4.87-9.76,7.97-6.92,3.1-14.7,4.05-17.83,4.36,3.13.31,10.91,1.26,17.83,4.36Zm2.98-6.3c5.37-1.39,7.03-2.94,7.56-3.56,1.9,1.18,4.41,2.5,7.55,3.56,4.04,1.35,7.77,1.83,10.73,1.94-2.96.11-6.69.59-10.73,1.95-3.14,1.05-5.65,2.37-7.55,3.55-.53-.62-2.19-2.17-7.56-3.55-5.36-1.39-11.38-1.81-13.8-1.95,2.42-.14,8.44-.56,13.8-1.94Z"/>
        <path class="cls-2" d="m37.46,246.23c1.66-1.88,3.29-2.69,4.61-3.06,2.09-.57,4.42-.3,6.86.72,5.31,2.24,11.1,8.04,15.85,16.4l-1.37,1.37-1.65,1.65-.8.8c-1.56-2.22-3.55-4.65-6.06-7.05-5.96-5.73-12.24-8.84-16.68-10.55-.26-.1-.51-.19-.76-.28Z"/>
        <path class="cls-2" d="m37.08,237.85c.22-.08.45-.17.69-.26,4.44-1.7,10.76-4.81,16.76-10.58,2.52-2.42,4.51-4.86,6.08-7.09l3.82,3.82c-4.85,8.56-10.8,14.45-16.21,16.57-2.32.91-4.54,1.14-6.53.59-1.31-.36-2.94-1.17-4.61-3.05Z"/>
      </g>
      <g>
        <path class="cls-2" d="m246.84,465.83c3.1-6.93,6.58-9.07,7.98-9.76l-7.98-9.75-4.36-17.83-4.36,17.83-7.97,9.75c1.39.69,4.87,2.83,7.97,9.76,3.1,6.92,4.05,14.7,4.36,17.83.31-3.13,1.26-10.91,4.36-17.83Zm-6.3-2.98c-1.39-5.37-2.94-7.03-3.56-7.56,1.18-1.9,2.5-4.41,3.56-7.55,1.35-4.04,1.83-7.77,1.94-10.73.11,2.96.59,6.69,1.95,10.73,1.05,3.14,2.37,5.65,3.55,7.55-.62.53-2.17,2.19-3.55,7.56-1.39,5.36-1.81,11.38-1.95,13.8-.14-2.42-.56-8.44-1.94-13.8Z"/>
        <path class="cls-2" d="m246.52,446.93c-1.88-1.66-2.69-3.29-3.06-4.61-.57-2.09-.3-4.42.72-6.86,2.24-5.31,8.04-11.1,16.4-15.85l1.37,1.37,1.65,1.65.8.8c-2.22,1.56-4.65,3.55-7.05,6.06-5.73,5.96-8.84,12.24-10.55,16.68-.1.26-.19.51-.28.76Z"/>
        <path class="cls-2" d="m238.14,447.31c-.08-.22-.17-.45-.26-.69-1.7-4.44-4.81-10.76-10.58-16.76-2.42-2.52-4.86-4.51-7.09-6.08l3.82-3.82c8.56,4.85,14.45,10.8,16.57,16.21.91,2.32,1.14,4.54.59,6.53-.36,1.31-1.17,2.94-3.05,4.61Z"/>
      </g>
      <g>
        <path class="cls-2" d="m237.95,18.41c-3.1,6.93-6.58,9.07-7.98,9.76l7.98,9.75,4.36,17.83,4.36-17.83,7.97-9.75c-1.39-.69-4.87-2.83-7.97-9.76-3.1-6.92-4.05-14.7-4.36-17.83-.31,3.13-1.26,10.91-4.36,17.83Zm6.3,2.98c1.39,5.37,2.94,7.03,3.56,7.56-1.18,1.9-2.5,4.41-3.56,7.55-1.35,4.04-1.83,7.77-1.94,10.73-.11-2.96-.59-6.69-1.95-10.73-1.05-3.14-2.37-5.65-3.55-7.55.62-.53,2.17-2.19,3.55-7.56,1.39-5.36,1.81-11.38,1.95-13.8.14,2.42.56,8.44,1.94,13.8Z"/>
        <path class="cls-2" d="m238.27,37.31c1.88,1.66,2.69,3.29,3.06,4.61.57,2.09.3,4.42-.72,6.86-2.24,5.31-8.04,11.1-16.4,15.85l-1.37-1.37-1.65-1.65-.8-.8c2.22-1.56,4.65-3.55,7.05-6.06,5.73-5.96,8.84-12.24,10.55-16.68.1-.26.19-.51.28-.76Z"/>
        <path class="cls-2" d="m246.65,36.93c.08.22.17.45.26.69,1.7,4.44,4.81,10.76,10.58,16.76,2.42,2.52,4.86,4.51,7.09,6.08l-3.82,3.82c-8.56-4.85-14.45-10.8-16.57-16.21-.91-2.32-1.14-4.54-.59-6.53.36-1.31,1.17-2.94,3.05-4.61Z"/>
      </g>
    </g>
  </g>
</svg>
